<svg width="50" height="50" viewBox="0 0 50 50" fill="none" xmlns="http://www.w3.org/2000/svg">
<rect x="3.12549" y="3.125" width="43.75" height="43.75" rx="15" fill="#2789F6"/>
<path d="M35.8182 28.647C35.4816 28.1903 35.4062 27.728 35.5901 27.2596C36.0491 26.0098 42.7339 18.0721 39.9491 18.0721C38.0355 18.0975 35.7342 18.0721 33.8996 18.0721C33.559 18.155 33.3387 18.3337 33.2008 18.6974C32.128 21.171 30.8152 24.1898 28.8912 26.1299C28.6381 26.334 28.4803 26.3253 28.1919 26.2498C26.8423 24.829 28.2814 19.9611 27.4607 18.0376C27.2989 17.6611 26.9448 17.491 26.5826 17.3953C24.7503 16.9586 20.5656 17.2185 19.8828 18.0975C19.6876 18.3488 19.6604 18.4859 19.8013 18.5085C20.4519 18.6111 20.9124 18.8566 21.1835 19.2448C21.6948 20.3709 22.0717 26.3694 20.5656 26.3694C19.0596 26.3694 16.631 20.4825 15.9638 18.8506C15.7863 18.3592 15.3343 18.0775 14.8581 17.9943L10.4025 18.0284C9.61933 18.0284 9.18162 18.4147 9.45921 19.1931C11.7799 24.9536 16.8583 36.1194 24.6472 35.8398C25.4275 35.8398 26.7698 36.1394 27.3792 35.4629C28.2167 34.3519 27.1953 32.3732 28.6313 31.6186C28.9935 31.4259 29.3689 31.5874 29.68 31.8243C31.2773 33.0406 32.1254 35.1753 34.0952 35.8234C34.4415 35.9375 34.745 35.966 35.0055 35.909L39.1682 35.8406C39.9411 35.8406 40.7024 35.4967 40.5425 34.5728C39.9356 32.5914 37.5173 30.5547 35.8182 28.647Z" fill="white"/>
</svg>