<svg xmlns="http://www.w3.org/2000/svg" width="187" height="50" viewBox="0 0 187 50" fill="none">
  <path d="M7.5 21.0794C3.3 21.0794 0 17.7189 0 13.4419V3.97144H3.7V13.4419C3.7 15.5804 5.4 17.2097 7.39999 17.2097C9.39999 17.2097 11.1 15.4786 11.1 13.4419V3.97144H14.8L13.2 13.4419C13.4 17.6171 10.7 21.0794 7.5 21.0794Z" fill="#009FA6"/>
  <path d="M41.5 17.0061C37.4 17.0061 34 13.5437 34 9.36859V3.97144H37.7V9.36859C37.7 11.5071 39.4 13.1364 41.4 13.1364C43.4 13.1364 45.1 11.4052 45.1 9.36859V3.97144H48.7L46.8 8.24842C46.9 13.6456 46 17.0061 41.5 17.0061Z" fill="#009FA6"/>
  <path d="M71.0003 3.97144H67.3003V20.4684H71.0003V3.97144Z" fill="#009FA6"/>
  <path d="M56.3001 3.97144H52.6001V20.4684H56.3001V3.97144Z" fill="#009FA6"/>
  <path d="M14.9998 3.97144H11.2998V20.4684H14.9998V3.97144Z" fill="#009FA6"/>
  <path d="M179.5 21.0794C175.3 21.0794 172 17.7189 172 13.4419V3.97144H175.7V13.4419C175.7 15.5804 177.4 17.2097 179.4 17.2097C181.4 17.2097 183.1 15.4786 183.1 13.4419V3.97144H186.8L185.2 13.4419C185.4 17.6171 182.7 21.0794 179.5 21.0794Z" fill="#009FA6"/>
  <path d="M187 3.97144H183.3V20.4684H187V3.97144Z" fill="#009FA6"/>
  <path d="M179.5 3.76782C177.9 3.76782 176.6 2.44399 176.6 0.814659V0H182.4V0.814659C182.5 2.44399 181.1 3.76782 179.5 3.76782Z" fill="#009FA6"/>
  <path d="M41.4998 22.7086C37.9998 22.7086 35.3998 20.8757 34.7998 20.4683L36.5998 17.5152C38.0998 18.4317 39.6998 18.9408 41.3998 18.9408C43.2998 18.9408 45.4998 17.3115 45.4998 15.173L45.0998 13.8492V4.17505H48.7998V15.2748C48.8998 19.2463 45.5998 22.7086 41.4998 22.7086Z" fill="#009FA6"/>
  <path d="M98.8999 17.0061C94.7999 17.0061 91.3999 13.5437 91.3999 9.36859V3.97144H95.0999V9.36859C95.0999 11.5071 96.7999 13.1364 98.7999 13.1364C100.9 13.1364 102.5 11.4052 102.5 9.36859V3.97144H106.1L104.2 8.24842C104.3 13.6456 103.4 17.0061 98.8999 17.0061Z" fill="#009FA6"/>
  <path d="M98.9002 22.7086C95.4002 22.7086 92.8002 20.8757 92.2002 20.4683L94.0002 17.5152C95.5002 18.4317 97.1002 18.9408 98.8002 18.9408C100.7 18.9408 102.9 17.3115 102.9 15.173L102.5 13.8492V4.17505H106.2V15.2748C106.4 19.2463 103.1 22.7086 98.9002 22.7086Z" fill="#009FA6"/>
  <path d="M60.2002 17.5152L52.7002 5.19343L54.6002 3.97144H56.4002L61.8002 12.8309L67.1002 3.97144H69.0002L70.8002 5.19343L63.3002 17.5152H60.2002Z" fill="#009FA6"/>
  <path d="M20.7999 12.3219V10.387H25.5999C26.3999 10.387 27.0999 9.67422 27.0999 8.85955C27.0999 8.24856 26.7999 7.73938 26.1999 7.43388C26.0999 7.43388 25.5999 7.23022 24.5999 7.23022C24.3999 7.23022 24.0999 7.23022 23.7999 7.23022C22.4999 7.33205 21.0999 7.63755 19.3999 8.24855L18.3999 4.9899C18.9999 4.6844 21.2999 3.86973 23.3999 3.56423C23.7999 3.56423 24.1999 3.4624 24.5999 3.4624C26.1999 3.4624 27.2999 3.86973 27.6999 4.0734C29.4999 4.9899 30.5999 6.72105 30.5999 8.75771C30.5999 11.2017 28.9999 12.22 25.4999 12.22H20.7999V12.3219Z" fill="#009FA6"/>
  <path d="M24.9 20.9777C24.5 20.9777 24.1 20.9777 23.7 20.8759C21.3 20.5704 18.7 19.6539 18 19.3484L19.1 15.8861L19.3 15.9879C21.2 16.5989 22.7 16.9044 24.1 17.108C24.4 17.108 24.7 17.108 25 17.108C26.1 17.108 26.7 16.8025 26.7 16.8025C27.2 16.497 27.6 15.9879 27.6 15.3769C27.6 14.4604 26.9 13.7476 26 13.7476H20.9V10.8962H26C28.6 10.8962 31.4 12.1182 31.4 15.3769C31.4 17.5154 30.2 19.4502 28.4 20.3667C27.9 20.5704 26.8 20.9777 24.9 20.9777Z" fill="#009FA6"/>
  <path d="M145.6 3.97144H141.9V20.4684H145.6V3.97144Z" fill="#009FA6"/>
  <path d="M169 3.97144H165.3V20.4684H169V3.97144Z" fill="#009FA6"/>
  <path d="M134.1 3.97144H130.4V20.4684H134.1V3.97144Z" fill="#009FA6"/>
  <path d="M143.5 10.387H131.4V14.1548H143.5V10.387Z" fill="#009FA6"/>
  <path d="M124.1 24.0327V20.5703H112.2V24.0327H108.5V19.4502C108.5 17.9227 109.7 16.7007 111.2 16.7007H125.2C126.7 16.7007 127.9 17.9227 127.9 19.4502V24.0327H124.1Z" fill="#009FA6"/>
  <path d="M112.6 20.5704L110.6 18.5338V10.7945C110.6 6.6193 113.9 3.15698 118.1 3.15698C122.2 3.15698 125.6 6.6193 125.6 10.7945V18.5338L123.6 20.5704H112.6ZM118.1 7.02664C116 7.02664 114.4 8.7578 114.4 10.7945V16.7008H121.9V10.7945C121.9 8.7578 120.2 7.02664 118.1 7.02664Z" fill="#009FA6"/>
  <path d="M155.9 20.9776C152 20.9776 148.8 17.719 148.8 13.7475C148.8 12.9328 149.2 12.831 149.9 12.831C150.5 12.831 151.4 12.7291 151.4 11.4053C151.4 9.57233 152.7 6.721 156.2 6.51733C156.3 6.51733 156.5 6.51733 156.6 6.51733C160.4 6.51733 163.3 9.57231 163.3 13.7475C163.3 17.719 160.1 20.9776 156.2 20.9776H155.9ZM155.9 10.387C154.1 10.387 152.6 11.9145 152.6 13.7475C152.6 15.5805 154.1 17.108 155.9 17.108H156.2C158 17.108 159.5 15.5805 159.5 13.7475C159.5 11.9145 158 10.387 156.2 10.387H155.9Z" fill="#009FA6"/>
  <path d="M152.5 3.97144H148.8V13.5437H152.5V3.97144Z" fill="#009FA6"/>
  <path d="M82.3996 18.0245C82.2996 18.0245 82.0996 18.0245 81.9996 18.0245C78.4996 17.8208 77.1996 14.9695 77.1996 13.1365C77.1996 11.8127 76.2996 11.8127 75.6996 11.7108C74.9996 11.7108 74.5996 11.609 74.5996 10.7943C74.5996 6.82286 77.7996 3.56421 81.6996 3.56421H81.9996C85.8996 3.56421 89.0996 6.82286 89.0996 10.7943C89.0996 14.8677 86.1996 18.0245 82.3996 18.0245ZM81.6996 7.43386C79.8996 7.43386 78.3996 8.96136 78.3996 10.7943C78.3996 12.6273 79.8996 14.1548 81.6996 14.1548H81.9996C83.7996 14.1548 85.2996 12.6273 85.2996 10.7943C85.2996 8.96136 83.7996 7.43386 81.9996 7.43386H81.6996Z" fill="#009FA6"/>
  <path d="M78.2996 10.9978H74.5996V20.5701H78.2996V10.9978Z" fill="#009FA6"/>
  <path d="M3.8001 29.9387H0.100098V46.4357H3.8001V29.9387Z" fill="#009FA6"/>
  <path d="M12.4001 29.9387H0.100098V33.7065H12.4001V29.9387Z" fill="#009FA6"/>
  <path d="M85.8998 49.9999V46.5376H73.9998V49.9999H70.2998V45.4175C70.2998 43.89 71.4998 42.668 72.9998 42.668H86.9998C88.4998 42.668 89.6998 43.89 89.6998 45.4175V49.9999H85.8998Z" fill="#009FA6"/>
  <path d="M74.3999 46.4359L72.3999 44.3992V36.7617C72.3999 32.5866 75.7999 29.1243 79.8999 29.1243C83.9999 29.1243 87.3999 32.5866 87.3999 36.7617V44.5011L85.3999 46.5377H74.3999V46.4359ZM79.8999 32.8921C77.7999 32.8921 76.1999 34.6232 76.1999 36.6599V42.5662H83.6999V36.7617C83.5999 34.6232 81.9999 32.8921 79.8999 32.8921Z" fill="#009FA6"/>
  <path d="M41.5998 43.8902C41.4998 43.8902 41.2998 43.8902 41.1998 43.8902C37.6998 43.6865 36.3998 40.8352 36.3998 39.0022C36.3998 37.6784 35.4998 37.6784 34.8998 37.5766C34.1998 37.5766 33.7998 37.4747 33.7998 36.6601C33.7998 32.6886 36.9998 29.4299 40.8998 29.4299H41.1998C45.0998 29.4299 48.2998 32.6886 48.2998 36.6601C48.2998 40.8352 45.3998 43.8902 41.5998 43.8902ZM40.8998 33.2996C39.0998 33.2996 37.5998 34.8271 37.5998 36.6601C37.5998 38.4931 39.0998 40.0206 40.8998 40.0206H41.1998C42.9998 40.0206 44.4998 38.4931 44.4998 36.6601C44.4998 34.8271 42.9998 33.2996 41.1998 33.2996H40.8998Z" fill="#009FA6"/>
  <path d="M37.4998 36.8635H33.7998V46.4358H37.4998V36.8635Z" fill="#009FA6"/>
  <path d="M22.2999 47.3523C17.3999 47.3523 13.3999 43.279 13.3999 38.2892C13.3999 33.2994 17.3999 29.2261 22.2999 29.2261C27.1999 29.2261 31.1999 33.2994 31.1999 38.2892C31.1999 43.279 27.1999 47.3523 22.2999 47.3523ZM22.2999 32.9939C19.3999 32.9939 17.0999 35.336 17.0999 38.2892C17.0999 41.2424 19.3999 43.5845 22.2999 43.5845C25.1999 43.5845 27.4999 41.2424 27.4999 38.2892C27.4999 35.336 25.0999 32.9939 22.2999 32.9939Z" fill="#009FA6"/>
  <path d="M59.7999 47.3523C54.8999 47.3523 50.8999 43.279 50.8999 38.2892C50.8999 33.2994 54.8999 29.2261 59.7999 29.2261C64.6999 29.2261 68.6999 33.2994 68.6999 38.2892C68.6999 43.279 64.6999 47.3523 59.7999 47.3523ZM59.7999 32.9939C56.8999 32.9939 54.5999 35.336 54.5999 38.2892C54.5999 41.2424 56.8999 43.5845 59.7999 43.5845C62.6999 43.5845 64.9999 41.2424 64.9999 38.2892C64.9999 35.336 62.5999 32.9939 59.7999 32.9939Z" fill="#009FA6"/>
  <path d="M96.8999 36.1508V29.8372H97.4999V35.5398H101.2V29.8372H101.8V36.1508H96.8999ZM102.2 37.6783V36.049L102.4 36.2526H101.2V35.6416H102.8V37.6783H102.2Z" fill="#E50000"/>
  <path d="M104.7 35.6414H108.4V36.2524H104V29.9387H108.2V30.5497H104.6V35.6414H104.7ZM104.6 32.6882H107.9V33.2992H104.6V32.6882Z" fill="#E50000"/>
  <path d="M110.4 36.1508H109.7V29.8372H110.4V36.1508ZM114.3 33.2995H110.3V32.6885H114.3V33.2995ZM114.2 29.939H114.8V36.2526H114.2V29.939Z" fill="#E50000"/>
  <path d="M118.1 36.1508V30.2445L118.3 30.4482H116V29.8372H121V30.4482H118.7L118.9 30.2445V36.1508H118.1Z" fill="#E50000"/>
  <path d="M121.9 36.1508V29.8372H124.2C124.7 29.8372 125.2 29.939 125.5 30.1427C125.8 30.3463 126.2 30.55 126.4 30.8555C126.6 31.161 126.7 31.5683 126.7 31.9757C126.7 32.383 126.6 32.7903 126.4 33.0958C126.2 33.4013 125.9 33.7068 125.5 33.8087C125.1 33.9105 124.7 34.1141 124.2 34.1141H122.3L122.6 33.8087V36.049H121.9V36.1508ZM122.6 33.9105L122.3 33.605H124.2C124.8 33.605 125.3 33.5031 125.6 33.1976C125.9 32.8922 126.1 32.5866 126.1 32.0775C126.1 31.5683 125.9 31.161 125.6 30.9573C125.3 30.7537 124.8 30.55 124.2 30.55H122.3L122.6 30.2445V33.9105Z" fill="#E50000"/>
  <path d="M129.4 36.1508L132.2 29.8372H132.8L135.6 36.1508H134.9L132.3 30.2445H132.6L130 36.1508H129.4ZM130.5 34.5215L130.7 34.0123H134.3L134.5 34.5215H130.5Z" fill="#E50000"/>
  <path d="M135.8 37.5765V35.6417H142.4V37.5765H141.8V36.1508H136.4V37.5765H135.8ZM140.8 35.8453V30.4482H137.9L137.8 31.9757C137.8 32.4848 137.8 32.8922 137.7 33.2995C137.6 33.7068 137.6 34.1142 137.5 34.4197C137.4 34.7252 137.3 35.0307 137.2 35.2343C137.1 35.438 136.9 35.5398 136.7 35.6417L136 35.5398C136.2 35.5398 136.4 35.438 136.6 35.2343C136.8 35.0307 136.9 34.827 137 34.4197C137.1 34.0123 137.1 33.7068 137.2 33.1977C137.3 32.6885 137.3 32.2812 137.3 31.772L137.4 29.7354H141.5V35.6417H140.8V35.8453Z" fill="#E50000"/>
  <path d="M142.7 36.1508L145.5 29.8372H146.1L148.9 36.1508H148.2L145.6 30.2445H145.9L143.3 36.1508H142.7ZM143.8 34.5215L144 34.0123H147.6L147.8 34.5215H143.8Z" fill="#E50000"/>
  <path d="M150.1 36.1508V29.8372H155.3V36.1508H154.7V30.2445L154.9 30.4482H150.7L150.9 30.2445V36.1508H150.1Z" fill="#E50000"/>
  <path d="M158.5 36.1508V30.2445L158.7 30.4482H156.4V29.8372H161.4V30.4482H159.1L159.3 30.2445V36.1508H158.5Z" fill="#E50000"/>
  <path d="M161.1 36.1508L163.9 29.8372H164.5L167.3 36.1508H166.6L164 30.2445H164.3L161.7 36.1508H161.1ZM162.2 34.5215L162.4 34.0123H166L166.2 34.5215H162.2Z" fill="#E50000"/>
  <path d="M168.5 36.1508V29.8372H169.1V35.5398H172.8V29.8372H173.4V36.1508H168.5ZM173.9 37.6783V36.049L174.1 36.2526H172.9V35.6416H174.5V37.6783H173.9Z" fill="#E50000"/>
  <path d="M175.1 36.1508V29.8372H175.7V35.0306L179.6 29.8372H180.2V36.1508H179.6V30.9573L175.7 36.1508H175.1Z" fill="#E50000"/>
  <path d="M181.7 36.1508V29.8372H182.3V35.0306L186.2 29.8372H186.8V36.1508H186.2V30.9573L182.3 36.1508H181.7Z" fill="#E50000"/>
  <path d="M96.8999 46.436V40.1223H97.4999V45.3158L101.4 40.1223H102V46.436H101.4V41.2425L97.4999 46.436H96.8999Z" fill="#E50000"/>
  <path d="M106.2 46.436V40.1223H108.5C109 40.1223 109.5 40.2242 109.8 40.4278C110.1 40.6315 110.5 40.8351 110.7 41.1406C110.9 41.4461 111 41.8535 111 42.2608C111 42.6681 110.9 43.0755 110.7 43.381C110.5 43.6865 110.2 43.992 109.8 44.0938C109.4 44.1956 109 44.3993 108.5 44.3993H106.6L106.9 44.0938V46.3341H106.2V46.436ZM106.9 44.1956L106.6 43.8901H108.5C109.1 43.8901 109.6 43.7883 109.9 43.4828C110.2 43.1773 110.4 42.8718 110.4 42.3626C110.4 41.8535 110.2 41.4461 109.9 41.2425C109.6 41.0388 109.1 40.8351 108.5 40.8351H106.6L106.9 40.5296V44.1956Z" fill="#E50000"/>
  <path d="M111.1 46.436L113.9 40.1223H114.5L117.3 46.436H116.6L114 40.5296H114.3L111.7 46.436H111.1ZM112.2 44.8066L112.4 44.2975H116L116.2 44.8066H112.2Z" fill="#E50000"/>
  <path d="M117.7 45.7229L117.9 45.2137C118.2 45.4174 118.5 45.621 118.8 45.7229C119.1 45.8247 119.5 45.9265 119.8 45.9265C120.1 45.9265 120.5 45.9265 120.7 45.8247C120.9 45.7229 121.2 45.621 121.4 45.4174C121.6 45.2137 121.7 45.01 121.7 44.7045C121.7 44.2972 121.6 44.0935 121.3 43.8899C121 43.6862 120.6 43.5844 120.1 43.5844H118.8V43.0752H120.1C120.5 43.0752 120.9 42.9734 121.1 42.7697C121.3 42.566 121.5 42.3624 121.5 41.955C121.5 41.7514 121.4 41.5477 121.3 41.344C121.2 41.1404 121 41.0386 120.7 40.9367C120.4 40.8349 120.2 40.8349 119.9 40.8349C119.6 40.8349 119.3 40.8349 119 40.9367C118.7 41.0386 118.4 41.1404 118.1 41.344L117.9 40.8349C118.3 40.6312 118.6 40.4275 119 40.3257C119.4 40.2239 119.8 40.2239 120.1 40.2239C120.4 40.2239 120.8 40.3257 121.1 40.5294C121.4 40.733 121.6 40.8349 121.8 41.1404C122 41.4459 122.1 41.6496 122.1 41.955C122.1 42.2605 122 42.566 121.9 42.7697C121.8 42.9734 121.5 43.177 121.3 43.2789C121.1 43.3807 120.7 43.4825 120.4 43.4825V43.2789C120.8 43.2789 121.2 43.3807 121.5 43.4825C121.8 43.5844 122 43.788 122.2 43.9917C122.4 44.1954 122.5 44.5009 122.5 44.8064C122.5 45.1119 122.4 45.4174 122.3 45.621C122.2 45.8247 121.9 46.0284 121.7 46.232C121.5 46.4357 121.1 46.5375 120.8 46.5375C120.5 46.5375 120.1 46.6394 119.8 46.6394C119.5 46.6394 119.1 46.5375 118.8 46.4357C118.5 46.3339 118 45.9265 117.7 45.7229Z" fill="#E50000"/>
  <path d="M123.9 46.436V40.1223H126.5C127.2 40.1223 127.7 40.2241 128 40.5296C128.3 40.8351 128.6 41.2425 128.6 41.7516C128.6 42.2608 128.4 42.6681 128.1 42.9736C127.8 43.2791 127.3 43.381 126.7 43.381L126.8 43.1773C127.5 43.1773 128 43.2791 128.4 43.5846C128.8 43.8901 128.9 44.2975 128.9 44.8066C128.9 45.3158 128.7 45.7231 128.3 46.0286C127.9 46.3341 127.4 46.436 126.6 46.436H123.9ZM124.6 43.0755H126.5C127 43.0755 127.3 42.9736 127.6 42.77C127.9 42.5663 128 42.2608 128 41.9553C128 41.6498 127.9 41.2425 127.6 41.1406C127.3 41.0388 127 40.8351 126.5 40.8351H124.6V43.0755ZM124.6 45.9268H126.7C127.2 45.9268 127.6 45.825 127.9 45.6213C128.2 45.4176 128.3 45.1121 128.3 44.7048C128.3 44.2975 128.2 43.992 127.9 43.7883C127.6 43.5846 127.2 43.4828 126.7 43.4828H124.6V45.9268Z" fill="#E50000"/>
  <path d="M130.399 46.436V40.1223H130.999V45.3158L134.899 40.1223H135.499V46.436H134.899V41.2425L130.999 46.436H130.399Z" fill="#E50000"/>
  <path d="M138.8 46.436V40.5296L139 40.7333H136.7V40.1223H141.7V40.7333H139.4L139.6 40.5296V46.436H138.8Z" fill="#E50000"/>
  <path d="M142.6 46.436V40.1223H143.2V45.3158L147.1 40.1223H147.7V46.436H147.1V41.2425L143.2 46.436H142.6Z" fill="#E50000"/>
  <path d="M153.5 46.4357V44.399L153.7 44.6027H151.7C151.2 44.6027 150.8 44.5009 150.4 44.2972C150 44.0935 149.8 43.8899 149.6 43.5844C149.4 43.2789 149.3 42.8715 149.3 42.4642C149.3 41.9551 149.4 41.5477 149.6 41.2422C149.8 40.9367 150.1 40.6312 150.4 40.5294C150.7 40.4275 151.2 40.2239 151.7 40.2239H154.1V46.5375H153.5V46.4357ZM149.3 46.4357L150.8 44.1954H151.5L150 46.4357H149.3ZM153.5 44.1954V40.5294L153.7 40.733H151.8C151.2 40.733 150.8 40.8349 150.5 41.1404C150.2 41.4459 150 41.8532 150 42.3624C150 42.8715 150.1 43.2789 150.4 43.5844C150.7 43.8899 151.1 43.9917 151.7 43.9917H153.7L153.5 44.1954Z" fill="#E50000"/>
</svg>