<svg width="1691" height="444" viewBox="0 0 1691 444" fill="none" xmlns="http://www.w3.org/2000/svg">
<path d="M67.8076 187.185C29.8354 187.185 0 157.344 0 119.365V35.2668H33.4518V119.365C33.4518 138.354 48.8215 152.823 66.9035 152.823C84.9856 152.823 100.355 137.45 100.355 119.365V35.2668H133.807L119.341 119.365C121.15 156.44 96.7389 187.185 67.8076 187.185Z" fill="#009FA6"/>
<path d="M375.202 151.014C338.134 151.014 307.395 120.269 307.395 83.1935V35.2668H340.846V83.1935C340.846 102.183 356.216 116.652 374.298 116.652C392.38 116.652 407.75 101.279 407.75 83.1935V35.2668H440.297L423.12 73.2464C424.024 121.173 415.887 151.014 375.202 151.014Z" fill="#009FA6"/>
<path d="M641.912 35.2668H608.46V181.76H641.912V35.2668Z" fill="#009FA6"/>
<path d="M509.009 35.2668H475.558V181.76H509.009V35.2668Z" fill="#009FA6"/>
<path d="M135.615 35.2668H102.164V181.76H135.615V35.2668Z" fill="#009FA6"/>
<path d="M1622.86 187.185C1584.89 187.185 1555.06 157.344 1555.06 119.365V35.2668H1588.51V119.365C1588.51 138.354 1603.88 152.823 1621.96 152.823C1640.04 152.823 1655.41 137.45 1655.41 119.365V35.2668H1688.86L1674.4 119.365C1676.2 156.44 1651.79 187.185 1622.86 187.185Z" fill="#009FA6"/>
<path d="M1690.67 35.2668H1657.22V181.76H1690.67V35.2668Z" fill="#009FA6"/>
<path d="M1622.86 33.4582C1608.4 33.4582 1596.64 21.7026 1596.64 7.23417V0H1649.08V7.23417C1649.99 21.7026 1637.33 33.4582 1622.86 33.4582Z" fill="#009FA6"/>
<path d="M375.202 201.654C343.559 201.654 320.052 185.377 314.627 181.76L330.901 155.536C344.463 163.674 358.928 168.196 374.298 168.196C391.476 168.196 411.366 153.727 411.366 134.737L407.75 122.982V37.0754H441.202V135.642C442.106 170.908 412.27 201.654 375.202 201.654Z" fill="#009FA6"/>
<path d="M894.157 151.014C857.089 151.014 826.349 120.269 826.349 83.1935V35.2668H859.801V83.1935C859.801 102.183 875.171 116.652 893.253 116.652C912.239 116.652 926.704 101.279 926.704 83.1935V35.2668H959.252L942.074 73.2464C942.978 121.173 934.841 151.014 894.157 151.014Z" fill="#009FA6"/>
<path d="M894.156 201.654C862.513 201.654 839.006 185.377 833.582 181.76L849.855 155.536C863.417 163.674 877.883 168.196 893.252 168.196C910.43 168.196 930.32 153.727 930.32 134.737L926.704 122.982V37.0754H960.156V135.642C961.964 170.908 932.129 201.654 894.156 201.654Z" fill="#009FA6"/>
<path d="M544.27 155.536L476.462 46.1181L493.64 35.2668H509.914L558.735 113.939L606.653 35.2668H623.831L640.104 46.1181L572.297 155.536H544.27Z" fill="#009FA6"/>
<path d="M188.053 109.417V92.2363H231.45C238.683 92.2363 245.011 85.9063 245.011 78.6721C245.011 73.2465 242.299 68.725 236.874 66.0122C235.97 66.0122 231.45 64.2036 222.409 64.2036C220.601 64.2036 217.888 64.2036 215.176 64.2036C203.423 65.1079 190.765 67.8208 175.396 73.2464L166.354 44.3096C171.779 41.5967 192.573 34.3625 211.56 31.6497C215.176 31.6497 218.792 30.7454 222.409 30.7454C236.874 30.7454 246.82 34.3625 250.436 36.1711C266.71 44.3096 276.655 59.6823 276.655 77.7678C276.655 99.4705 262.189 108.513 230.546 108.513H188.053V109.417Z" fill="#009FA6"/>
<path d="M225.121 186.281C221.505 186.281 217.888 186.281 214.272 185.377C192.574 182.664 169.067 174.525 162.738 171.813L172.683 141.067L174.492 141.972C191.67 147.397 205.231 150.11 217.888 151.919C220.601 151.919 223.313 151.919 226.025 151.919C235.971 151.919 241.395 149.206 241.395 149.206C245.916 146.493 249.532 141.971 249.532 136.546C249.532 128.407 243.203 122.077 235.066 122.077H188.957V96.7577H235.066C258.573 96.7577 283.888 107.609 283.888 136.546C283.888 155.536 273.039 172.717 256.765 180.855C252.244 182.664 242.299 186.281 225.121 186.281Z" fill="#009FA6"/>
<path d="M1316.37 35.2668H1282.92V181.76H1316.37V35.2668Z" fill="#009FA6"/>
<path d="M1527.93 35.2668H1494.48V181.76H1527.93V35.2668Z" fill="#009FA6"/>
<path d="M1212.4 35.2668H1178.95V181.76H1212.4V35.2668Z" fill="#009FA6"/>
<path d="M1297.39 92.2363H1187.99V125.695H1297.39V92.2363Z" fill="#009FA6"/>
<path d="M1121.99 213.409V182.664H1014.4V213.409H980.951V172.717C980.951 159.153 991.8 148.301 1005.36 148.301H1131.94C1145.5 148.301 1156.35 159.153 1156.35 172.717V213.409H1121.99Z" fill="#009FA6"/>
<path d="M1018.02 182.664L999.937 164.578V95.8534C999.937 58.778 1029.77 28.0326 1067.74 28.0326C1104.81 28.0326 1135.55 58.778 1135.55 95.8534V164.578L1117.47 182.664H1018.02ZM1067.74 62.3951C1048.76 62.3951 1034.29 77.7678 1034.29 95.8534V148.301H1102.1V95.8534C1102.1 77.7678 1086.73 62.3951 1067.74 62.3951Z" fill="#009FA6"/>
<path d="M1409.49 186.281C1374.23 186.281 1345.3 157.344 1345.3 122.077C1345.3 114.843 1348.92 113.939 1355.25 113.939C1360.67 113.939 1368.81 113.035 1368.81 101.279C1368.81 85.0021 1380.56 59.6823 1412.21 57.8737C1413.11 57.8737 1414.92 57.8737 1415.82 57.8737C1450.18 57.8737 1476.4 85.002 1476.4 122.077C1476.4 157.344 1447.47 186.281 1412.21 186.281H1409.49ZM1409.49 92.2363C1393.22 92.2363 1379.66 105.8 1379.66 122.077C1379.66 138.354 1393.22 151.918 1409.49 151.918H1412.21C1428.48 151.918 1442.04 138.354 1442.04 122.077C1442.04 105.8 1428.48 92.2363 1412.21 92.2363H1409.49Z" fill="#009FA6"/>
<path d="M1378.75 35.2668H1345.3V120.269H1378.75V35.2668Z" fill="#009FA6"/>
<path d="M744.98 160.057C744.076 160.057 742.268 160.057 741.363 160.057C709.72 158.249 697.967 132.929 697.967 116.652C697.967 104.896 689.83 104.896 684.405 103.992C678.076 103.992 674.46 103.088 674.46 95.8534C674.46 60.5866 703.391 31.6497 738.651 31.6497H741.363C776.623 31.6497 805.555 60.5866 805.555 95.8534C805.555 132.024 779.336 160.057 744.98 160.057ZM738.651 66.0122C722.377 66.0122 708.816 79.5764 708.816 95.8534C708.816 112.13 722.377 125.695 738.651 125.695H741.363C757.637 125.695 771.199 112.13 771.199 95.8534C771.199 79.5764 757.637 66.0122 741.363 66.0122H738.651Z" fill="#009FA6"/>
<path d="M707.912 97.6619H674.46V182.664H707.912V97.6619Z" fill="#009FA6"/>
<path d="M34.3556 265.857H0.903809V412.35H34.3556V265.857Z" fill="#009FA6"/>
<path d="M112.108 265.857H0.903809V299.316H112.108V265.857Z" fill="#009FA6"/>
<path d="M776.623 444V413.255H669.035V444H635.583V403.308C635.583 389.743 646.432 378.892 659.994 378.892H786.568C800.13 378.892 810.979 389.743 810.979 403.308V444H776.623Z" fill="#009FA6"/>
<path d="M672.652 412.35L654.57 394.265V326.444C654.57 289.369 685.309 258.623 722.377 258.623C759.446 258.623 790.185 289.369 790.185 326.444V395.169L772.103 413.255H672.652V412.35ZM722.377 292.081C703.391 292.081 688.926 307.454 688.926 325.54V377.988H756.733V326.444C755.829 307.454 741.364 292.081 722.377 292.081Z" fill="#009FA6"/>
<path d="M376.106 389.743C375.202 389.743 373.394 389.743 372.49 389.743C340.846 387.935 329.093 362.615 329.093 346.338C329.093 334.582 320.956 334.583 315.532 333.678C309.203 333.678 305.586 332.774 305.586 325.54C305.586 290.273 334.518 261.336 369.778 261.336H372.49C407.75 261.336 436.681 290.273 436.681 325.54C436.681 362.615 410.462 389.743 376.106 389.743ZM369.778 295.699C353.504 295.699 339.942 309.263 339.942 325.54C339.942 341.817 353.504 355.381 369.778 355.381H372.49C388.764 355.381 402.325 341.817 402.325 325.54C402.325 309.263 388.764 295.699 372.49 295.699H369.778Z" fill="#009FA6"/>
<path d="M339.038 327.348H305.586V412.35H339.038V327.348Z" fill="#009FA6"/>
<path d="M201.614 420.489C157.313 420.489 121.149 384.318 121.149 340.008C121.149 295.699 157.313 259.528 201.614 259.528C245.915 259.528 282.08 295.699 282.08 340.008C282.08 384.318 245.915 420.489 201.614 420.489ZM201.614 292.986C175.396 292.986 154.601 313.784 154.601 340.008C154.601 366.232 175.396 387.031 201.614 387.031C227.833 387.031 248.628 366.232 248.628 340.008C248.628 313.784 226.929 292.986 201.614 292.986Z" fill="#009FA6"/>
<path d="M540.653 420.489C496.352 420.489 460.188 384.318 460.188 340.008C460.188 295.699 496.352 259.528 540.653 259.528C584.954 259.528 621.118 295.699 621.118 340.008C621.118 384.318 584.954 420.489 540.653 420.489ZM540.653 292.986C514.434 292.986 493.64 313.784 493.64 340.008C493.64 366.232 514.434 387.031 540.653 387.031C566.872 387.031 587.666 366.232 587.666 340.008C587.666 313.784 565.968 292.986 540.653 292.986Z" fill="#009FA6"/>
<path d="M876.074 321.018V264.953H881.499V315.593H914.951V264.953H920.375V321.018H876.074ZM923.992 334.582V320.114L925.8 321.923H914.951V316.497H929.416V334.582H923.992Z" fill="#E62638"/>
<path d="M946.594 316.497H980.046V321.923H940.265V265.857H978.238V271.283H945.69V316.497H946.594ZM945.69 290.273H975.525V295.699H945.69V290.273Z" fill="#E62638"/>
<path d="M998.128 321.018H991.8V264.953H998.128V321.018ZM1033.39 295.699H997.224V290.273H1033.39V295.699ZM1032.48 265.857H1037.91V321.923H1032.48V265.857Z" fill="#E62638"/>
<path d="M1067.74 321.018V268.57L1069.55 270.379H1048.76V264.953H1093.96V270.379H1073.17L1074.98 268.57V321.018H1067.74Z" fill="#E62638"/>
<path d="M1102.1 321.018V264.953H1122.89C1127.41 264.953 1131.93 265.857 1134.65 267.666C1137.36 269.475 1140.98 271.283 1142.78 273.996C1144.59 276.709 1145.5 280.326 1145.5 283.943C1145.5 287.56 1144.59 291.177 1142.78 293.89C1140.98 296.603 1138.26 299.316 1134.65 300.22C1131.03 301.124 1127.41 302.933 1122.89 302.933H1105.72L1108.43 300.22V320.114H1102.1V321.018ZM1108.43 301.124L1105.72 298.411H1122.89C1128.32 298.411 1132.84 297.507 1135.55 294.794C1138.26 292.081 1140.07 289.369 1140.07 284.847C1140.07 280.326 1138.26 276.709 1135.55 274.9C1132.84 273.092 1128.32 271.283 1122.89 271.283H1105.72L1108.43 268.57V301.124Z" fill="#E62638"/>
<path d="M1169.91 321.018L1195.22 264.953H1200.65L1225.96 321.018H1219.63L1196.13 268.57H1198.84L1175.33 321.018H1169.91ZM1179.85 306.55L1181.66 302.028H1214.21L1216.02 306.55H1179.85Z" fill="#E62638"/>
<path d="M1227.77 333.678V316.497H1287.44V333.678H1282.02V321.018H1233.19V333.678H1227.77ZM1272.97 318.306V270.379H1246.76L1245.85 283.943C1245.85 288.464 1245.85 292.082 1244.95 295.699C1244.04 299.316 1244.04 302.933 1243.14 305.646C1242.24 308.358 1241.33 311.071 1240.43 312.88C1239.52 314.688 1237.71 315.593 1235.91 316.497L1229.58 315.593C1231.39 315.593 1233.19 314.688 1235 312.88C1236.81 311.071 1237.71 309.263 1238.62 305.646C1239.52 302.029 1239.52 299.316 1240.43 294.794C1241.33 290.273 1241.33 286.656 1241.33 282.134L1242.24 264.049H1279.3V316.497H1272.97V318.306Z" fill="#E62638"/>
<path d="M1290.15 321.018L1315.47 264.953H1320.89L1346.21 321.018H1339.88L1316.37 268.57H1319.08L1295.58 321.018H1290.15ZM1300.1 306.55L1301.91 302.029H1334.45L1336.26 306.55H1300.1Z" fill="#E62638"/>
<path d="M1357.06 321.018V264.953H1404.07V321.018H1398.64V268.57L1400.45 270.379H1362.48L1364.29 268.57V321.018H1357.06Z" fill="#E62638"/>
<path d="M1433 321.018V268.57L1434.81 270.379H1414.01V264.953H1459.22V270.379H1438.43L1440.23 268.57V321.018H1433Z" fill="#E62638"/>
<path d="M1456.51 321.018L1481.82 264.953H1487.25L1512.56 321.018H1506.23L1482.73 268.57H1485.44L1461.93 321.018H1456.51ZM1466.45 306.55L1468.26 302.029H1500.81L1502.62 306.55H1466.45Z" fill="#E62638"/>
<path d="M1523.41 321.018V264.953H1528.84V315.593H1562.29V264.953H1567.71V321.018H1523.41ZM1572.23 334.582V320.114L1574.04 321.923H1563.19V316.497H1577.66V334.582H1572.23Z" fill="#E62638"/>
<path d="M1583.08 321.018V264.953H1588.51V311.071L1623.77 264.953H1629.19V321.018H1623.77V274.9L1588.51 321.018H1583.08Z" fill="#E62638"/>
<path d="M1642.75 321.018V264.953H1648.18V311.071L1683.44 264.953H1688.86V321.018H1683.44V274.9L1648.18 321.018H1642.75Z" fill="#E62638"/>
<path d="M876.074 412.35V356.285H881.499V402.403L916.759 356.285H922.183V412.35H916.759V366.232L881.499 412.35H876.074Z" fill="#E62638"/>
<path d="M960.156 412.35V356.285H980.95C985.47 356.285 989.991 357.189 992.703 358.998C995.416 360.807 999.032 362.615 1000.84 365.328C1002.65 368.041 1003.55 371.658 1003.55 375.275C1003.55 378.892 1002.65 382.509 1000.84 385.222C999.032 387.935 996.32 390.648 992.703 391.552C989.087 392.456 985.47 394.265 980.95 394.265H963.772L966.484 391.552V411.446H960.156V412.35ZM966.484 392.456L963.772 389.743H980.95C986.375 389.743 990.895 388.839 993.607 386.126C996.32 383.413 998.128 380.701 998.128 376.179C998.128 371.658 996.32 368.041 993.607 366.232C990.895 364.424 986.375 362.615 980.95 362.615H963.772L966.484 359.902V392.456Z" fill="#E62638"/>
<path d="M1004.46 412.35L1029.77 356.285H1035.2L1060.51 412.35H1054.18L1030.68 359.902H1033.39L1009.88 412.35H1004.46ZM1014.4 397.882L1016.21 393.36H1048.76L1050.57 397.882H1014.4Z" fill="#E62638"/>
<path d="M1064.13 406.02L1065.94 401.499C1068.65 403.307 1071.36 405.116 1074.07 406.02C1076.78 406.925 1080.4 407.829 1083.11 407.829C1085.83 407.829 1089.44 407.829 1091.25 406.925C1093.06 406.02 1095.77 405.116 1097.58 403.307C1099.39 401.499 1100.29 399.69 1100.29 396.978C1100.29 393.36 1099.39 391.552 1096.68 389.743C1093.96 387.935 1090.35 387.03 1085.83 387.03H1074.07V382.509H1085.83C1089.44 382.509 1093.06 381.605 1094.87 379.796C1096.68 377.988 1098.48 376.179 1098.48 372.562C1098.48 370.754 1097.58 368.945 1096.68 367.136C1095.77 365.328 1093.96 364.424 1091.25 363.519C1088.54 362.615 1086.73 362.615 1084.02 362.615C1081.31 362.615 1078.59 362.615 1075.88 363.519C1073.17 364.424 1070.46 365.328 1067.74 367.136L1065.94 362.615C1069.55 360.806 1072.26 358.998 1075.88 358.094C1079.5 357.189 1083.11 357.189 1085.83 357.189C1088.54 357.189 1092.15 358.094 1094.87 359.902C1097.58 361.711 1099.39 362.615 1101.2 365.328C1103 368.041 1103.91 369.849 1103.91 372.562C1103.91 375.275 1103 377.988 1102.1 379.796C1101.2 381.605 1098.48 383.413 1096.68 384.318C1094.87 385.222 1091.25 386.126 1088.54 386.126V384.318C1092.15 384.318 1095.77 385.222 1098.48 386.126C1101.2 387.031 1103 388.839 1104.81 390.648C1106.62 392.456 1107.52 395.169 1107.52 397.882C1107.52 400.595 1106.62 403.307 1105.72 405.116C1104.81 406.925 1102.1 408.733 1100.29 410.542C1098.48 412.35 1094.87 413.255 1092.15 413.255C1089.44 413.255 1085.83 414.159 1083.11 414.159C1080.4 414.159 1076.78 413.254 1074.07 412.35C1071.36 411.446 1066.84 407.829 1064.13 406.02Z" fill="#E62638"/>
<path d="M1120.18 412.35V356.285H1143.69C1150.02 356.285 1154.54 357.189 1157.25 359.902C1159.96 362.615 1162.67 366.232 1162.67 370.753C1162.67 375.275 1160.87 378.892 1158.15 381.605C1155.44 384.318 1150.92 385.222 1145.5 385.222L1146.4 383.413C1152.73 383.413 1157.25 384.318 1160.87 387.03C1164.48 389.743 1165.39 393.36 1165.39 397.882C1165.39 402.403 1163.58 406.02 1159.96 408.733C1156.35 411.446 1151.83 412.35 1144.59 412.35H1120.18ZM1126.51 382.509H1143.69C1148.21 382.509 1150.92 381.605 1153.63 379.796C1156.35 377.988 1157.25 375.275 1157.25 372.562C1157.25 369.849 1156.35 366.232 1153.63 365.328C1150.92 364.424 1148.21 362.615 1143.69 362.615H1126.51V382.509ZM1126.51 407.829H1145.5C1150.02 407.829 1153.63 406.925 1156.35 405.116C1159.06 403.307 1159.96 400.595 1159.96 396.978C1159.96 393.36 1159.06 390.648 1156.35 388.839C1153.63 387.03 1150.02 386.126 1145.5 386.126H1126.51V407.829Z" fill="#E62638"/>
<path d="M1178.95 412.35V356.285H1184.37V402.403L1219.63 356.285H1225.06V412.35H1219.63V366.232L1184.37 412.35H1178.95Z" fill="#E62638"/>
<path d="M1254.89 412.35V359.902L1256.7 361.711H1235.91V356.285H1281.11V361.711H1260.32L1262.13 359.902V412.35H1254.89Z" fill="#E62638"/>
<path d="M1289.25 412.35V356.285H1294.67V402.403L1329.93 356.285H1335.36V412.35H1329.93V366.232L1294.67 412.35H1289.25Z" fill="#E62638"/>
<path d="M1387.8 412.35V394.265L1389.6 396.073H1371.52C1367 396.073 1363.38 395.169 1359.77 393.36C1356.15 391.552 1354.34 389.743 1352.54 387.03C1350.73 384.318 1349.82 380.701 1349.82 377.083C1349.82 372.562 1350.73 368.945 1352.54 366.232C1354.34 363.519 1357.06 360.806 1359.77 359.902C1362.48 358.998 1367 357.189 1371.52 357.189H1393.22V413.255H1387.8V412.35ZM1349.82 412.35L1363.38 392.456H1369.71L1356.15 412.35H1349.82ZM1387.8 392.456V359.902L1389.6 361.711H1372.43C1367 361.711 1363.38 362.615 1360.67 365.328C1357.96 368.041 1356.15 371.658 1356.15 376.179C1356.15 380.701 1357.06 384.318 1359.77 387.03C1362.48 389.743 1366.1 390.648 1371.52 390.648H1389.6L1387.8 392.456Z" fill="#E62638"/>
</svg>
